<?xml version="1.0" encoding="UTF-8"?>
<svg id="Yaba_Coin" xmlns="http://www.w3.org/2000/svg" version="1.1" xmlns:xlink="http://www.w3.org/1999/xlink" viewBox="0 0 216 216">
  <!-- Generator: Adobe Illustrator 29.1.0, SVG Export Plug-In . SVG Version: 2.1.0 Build 142)  -->
  <defs>
    <style>
      .st0 {
        fill: #ffcd40;
      }

      .st1 {
        fill: none;
      }

      .st2 {
        fill: #eaa10f;
      }

      .st3 {
        fill: #ce7409;
      }

      .st4 {
        clip-path: url(#clippath-1);
      }

      .st5 {
        clip-path: url(#clippath-2);
      }

      .st6 {
        fill: #b55600;
      }

      .st7 {
        fill: #ffeab6;
      }

      .st8 {
        clip-path: url(#clippath);
      }
    </style>
    <clipPath id="clippath">
      <circle id="Back1" data-name="Back" class="st1" cx="108" cy="108" r="108"/>
    </clipPath>
    <clipPath id="clippath-1">
      <circle id="Center1" data-name="Center" class="st1" cx="108" cy="108" r="89.67"/>
    </clipPath>
    <clipPath id="clippath-2">
      <path class="st1" d="M149.13,51.36l-10.24-4.65c-4.03-1.83-8.78-.05-10.61,3.99l-17.97,39.59-26.37-38.71c-2.42-3.56-7.27-4.48-10.83-2.05l-8.68,5.91c-3.56,2.42-4.48,7.27-2.05,10.83l35.31,51.83-23.72,52.25c-1.83,4.03-.05,8.78,3.99,10.61l10.24,4.65c4.03,1.83,8.78.05,10.61-3.99l54.32-119.65c1.83-4.03.05-8.78-3.99-10.61Z"/>
    </clipPath>
  </defs>
  <circle id="Back" class="st0" cx="108" cy="108" r="108"/>
  <g id="Shine_Outside">
    <g class="st8">
      <rect class="st7" x="48.92" y="-.71" width="21.62" height="86.35" transform="translate(-13 51.51) rotate(-42.5)"/>
      <rect class="st7" x="70.5" y="-14.97" width="9.59" height="86.35" transform="translate(.73 58.28) rotate(-42.5)"/>
    </g>
  </g>
  <circle id="Middle" class="st2" cx="108" cy="108" r="98.68"/>
  <circle id="Center" class="st0" cx="108" cy="108" r="89.67"/>
  <g id="Center_Shine">
    <g class="st4">
      <rect class="st7" x="121.54" y="-5.27" width="22.22" height="229.17" rx="7.82" ry="7.82" transform="translate(-39 118.34) rotate(-42.5)"/>
      <rect class="st7" x="145.43" y="-15.13" width="9.59" height="223.87" rx="3.78" ry="3.78" transform="translate(-25.93 126.93) rotate(-42.5)"/>
      <rect class="st7" x="79.95" y="41.77" width="9.59" height="223.87" rx="3.78" ry="3.78" transform="translate(-81.58 97.64) rotate(-42.5)"/>
    </g>
  </g>
  <rect id="Y_Top" class="st6" x="77.9" y="45.63" width="26.1" height="78.83" rx="7.8" ry="7.8" transform="translate(-32.1 65.97) rotate(-34.27)"/>
  <rect id="Y_Side" class="st6" x="99.89" y="42.44" width="27.28" height="147.44" rx="8.02" ry="8.02" transform="translate(58.17 -36.54) rotate(24.42)"/>
  <g id="Y_Shine">
    <g class="st5">
      <rect class="st3" x="121.54" y="-5.27" width="22.22" height="229.17" rx="7.82" ry="7.82" transform="translate(-39 118.34) rotate(-42.5)"/>
      <rect class="st3" x="145.43" y="-15.13" width="9.59" height="223.87" rx="3.78" ry="3.78" transform="translate(-25.93 126.93) rotate(-42.5)"/>
      <rect class="st3" x="104.69" y="69.52" width="9.59" height="223.87" rx="3.78" ry="3.78" transform="translate(-93.83 121.65) rotate(-42.5)"/>
    </g>
  </g>
</svg>